<?xml version="1.0" encoding="UTF-8" standalone="no"?>
<!DOCTYPE svg PUBLIC "-//W3C//DTD SVG 1.1//EN"
 "http://www.w3.org/Graphics/SVG/1.1/DTD/svg11.dtd">
<!-- Generated by graphviz version 2.47.0 (20210316.0004)
 -->
<!-- Title: dbml Pages: 1 -->
<svg width="2698pt" height="2204pt"
 viewBox="0.00 0.00 2698.35 2204.07" xmlns="http://www.w3.org/2000/svg" xmlns:xlink="http://www.w3.org/1999/xlink">
<g id="graph0" class="graph" transform="scale(1 1) rotate(0) translate(4 2200.07)">
<title>dbml</title>
<!-- Appointment -->
<g id="Appointment" class="node">
<title>Appointment</title>
<ellipse fill="none" stroke="black" stroke-width="0" cx="967.97" cy="-535.53" rx="284.01" ry="172.57"/>
<polygon fill="#1d71b8" stroke="transparent" points="768.97,-595.53 768.97,-655.53 1166.97,-655.53 1166.97,-595.53 768.97,-595.53"/>
<polygon fill="none" stroke="#29235c" points="768.97,-595.53 768.97,-655.53 1166.97,-655.53 1166.97,-595.53 768.97,-595.53"/>
<text text-anchor="start" x="815.91" y="-616.73" font-family="Helvetica,sans-Serif" font-weight="bold" font-size="32.00" fill="#ffffff"> &#160;&#160;&#160;&#160;&#160;&#160;Appointment &#160;&#160;&#160;&#160;&#160;&#160;</text>
<polygon fill="#e7e2dd" stroke="transparent" points="768.97,-535.53 768.97,-595.53 1166.97,-595.53 1166.97,-535.53 768.97,-535.53"/>
<polygon fill="none" stroke="#29235c" points="768.97,-535.53 768.97,-595.53 1166.97,-595.53 1166.97,-535.53 768.97,-535.53"/>
<text text-anchor="start" x="779.97" y="-556.73" font-family="Helvetica,sans-Serif" font-weight="bold" font-size="32.00" fill="#29235c">id</text>
<text text-anchor="start" x="804.86" y="-556.73" font-family="Helvetica,sans-Serif" font-size="32.00" fill="#29235c"> &#160;&#160;&#160;</text>
<text text-anchor="start" x="1013.75" y="-556.73" font-family="Helvetica,sans-Serif" font-style="italic" font-size="32.00" fill="#29235c">INTEGER</text>
<polygon fill="#e7e2dd" stroke="transparent" points="768.97,-475.53 768.97,-535.53 1166.97,-535.53 1166.97,-475.53 768.97,-475.53"/>
<polygon fill="none" stroke="#29235c" points="768.97,-475.53 768.97,-535.53 1166.97,-535.53 1166.97,-475.53 768.97,-475.53"/>
<text text-anchor="start" x="779.97" y="-495.73" font-family="Helvetica,sans-Serif" font-size="32.00" fill="#29235c">car_id &#160;&#160;&#160;</text>
<text text-anchor="start" x="1013.75" y="-496.73" font-family="Helvetica,sans-Serif" font-style="italic" font-size="32.00" fill="#29235c">INTEGER</text>
<polygon fill="#e7e2dd" stroke="transparent" points="768.97,-415.53 768.97,-475.53 1166.97,-475.53 1166.97,-415.53 768.97,-415.53"/>
<polygon fill="none" stroke="#29235c" points="768.97,-415.53 768.97,-475.53 1166.97,-475.53 1166.97,-415.53 768.97,-415.53"/>
<text text-anchor="start" x="779.63" y="-435.73" font-family="Helvetica,sans-Serif" font-size="32.00" fill="#29235c">appointment_date &#160;&#160;&#160;</text>
<text text-anchor="start" x="1070.8" y="-436.73" font-family="Helvetica,sans-Serif" font-style="italic" font-size="32.00" fill="#29235c">DATE</text>
<polygon fill="none" stroke="#29235c" stroke-width="2" points="767.97,-414.53 767.97,-656.53 1167.97,-656.53 1167.97,-414.53 767.97,-414.53"/>
</g>
<!-- Car -->
<g id="Car" class="node">
<title>Car</title>
<ellipse fill="none" stroke="black" stroke-width="0" cx="1668.65" cy="-639.53" rx="354.94" ry="342.48"/>
<polygon fill="#1d71b8" stroke="transparent" points="1419.65,-819.53 1419.65,-879.53 1917.65,-879.53 1917.65,-819.53 1419.65,-819.53"/>
<polygon fill="none" stroke="#29235c" points="1419.65,-819.53 1419.65,-879.53 1917.65,-879.53 1917.65,-819.53 1419.65,-819.53"/>
<text text-anchor="start" x="1580.63" y="-840.73" font-family="Helvetica,sans-Serif" font-weight="bold" font-size="32.00" fill="#ffffff"> &#160;&#160;&#160;&#160;&#160;&#160;Car &#160;&#160;&#160;&#160;&#160;&#160;</text>
<polygon fill="#e7e2dd" stroke="transparent" points="1419.65,-759.53 1419.65,-819.53 1917.65,-819.53 1917.65,-759.53 1419.65,-759.53"/>
<polygon fill="none" stroke="#29235c" points="1419.65,-759.53 1419.65,-819.53 1917.65,-819.53 1917.65,-759.53 1419.65,-759.53"/>
<text text-anchor="start" x="1430.65" y="-780.73" font-family="Helvetica,sans-Serif" font-weight="bold" font-size="32.00" fill="#29235c">id</text>
<text text-anchor="start" x="1455.54" y="-780.73" font-family="Helvetica,sans-Serif" font-size="32.00" fill="#29235c"> &#160;&#160;&#160;</text>
<text text-anchor="start" x="1764.43" y="-780.73" font-family="Helvetica,sans-Serif" font-style="italic" font-size="32.00" fill="#29235c">INTEGER</text>
<polygon fill="#e7e2dd" stroke="transparent" points="1419.65,-699.53 1419.65,-759.53 1917.65,-759.53 1917.65,-699.53 1419.65,-699.53"/>
<polygon fill="none" stroke="#29235c" points="1419.65,-699.53 1419.65,-759.53 1917.65,-759.53 1917.65,-699.53 1419.65,-699.53"/>
<text text-anchor="start" x="1430.65" y="-719.73" font-family="Helvetica,sans-Serif" font-size="32.00" fill="#29235c">model &#160;&#160;&#160;</text>
<text text-anchor="start" x="1750.22" y="-720.73" font-family="Helvetica,sans-Serif" font-style="italic" font-size="32.00" fill="#29235c">VARCHAR</text>
<polygon fill="#e7e2dd" stroke="transparent" points="1419.65,-639.53 1419.65,-699.53 1917.65,-699.53 1917.65,-639.53 1419.65,-639.53"/>
<polygon fill="none" stroke="#29235c" points="1419.65,-639.53 1419.65,-699.53 1917.65,-699.53 1917.65,-639.53 1419.65,-639.53"/>
<text text-anchor="start" x="1430.65" y="-659.73" font-family="Helvetica,sans-Serif" font-size="32.00" fill="#29235c">make &#160;&#160;&#160;</text>
<text text-anchor="start" x="1750.22" y="-660.73" font-family="Helvetica,sans-Serif" font-style="italic" font-size="32.00" fill="#29235c">VARCHAR</text>
<polygon fill="#e7e2dd" stroke="transparent" points="1419.65,-579.53 1419.65,-639.53 1917.65,-639.53 1917.65,-579.53 1419.65,-579.53"/>
<polygon fill="none" stroke="#29235c" points="1419.65,-579.53 1419.65,-639.53 1917.65,-639.53 1917.65,-579.53 1419.65,-579.53"/>
<text text-anchor="start" x="1430.65" y="-599.73" font-family="Helvetica,sans-Serif" font-size="32.00" fill="#29235c">year &#160;&#160;&#160;</text>
<text text-anchor="start" x="1764.43" y="-600.73" font-family="Helvetica,sans-Serif" font-style="italic" font-size="32.00" fill="#29235c">INTEGER</text>
<polygon fill="#e7e2dd" stroke="transparent" points="1419.65,-519.53 1419.65,-579.53 1917.65,-579.53 1917.65,-519.53 1419.65,-519.53"/>
<polygon fill="none" stroke="#29235c" points="1419.65,-519.53 1419.65,-579.53 1917.65,-579.53 1917.65,-519.53 1419.65,-519.53"/>
<text text-anchor="start" x="1430.62" y="-539.73" font-family="Helvetica,sans-Serif" font-size="32.00" fill="#29235c">registration_number &#160;&#160;&#160;</text>
<text text-anchor="start" x="1750.43" y="-540.73" font-family="Helvetica,sans-Serif" font-style="italic" font-size="32.00" fill="#29235c">VARCHAR</text>
<polygon fill="#e7e2dd" stroke="transparent" points="1419.65,-459.53 1419.65,-519.53 1917.65,-519.53 1917.65,-459.53 1419.65,-459.53"/>
<polygon fill="none" stroke="#29235c" points="1419.65,-459.53 1419.65,-519.53 1917.65,-519.53 1917.65,-459.53 1419.65,-459.53"/>
<text text-anchor="start" x="1430.65" y="-479.73" font-family="Helvetica,sans-Serif" font-size="32.00" fill="#29235c">owner_id &#160;&#160;&#160;</text>
<text text-anchor="start" x="1764.43" y="-480.73" font-family="Helvetica,sans-Serif" font-style="italic" font-size="32.00" fill="#29235c">INTEGER</text>
<polygon fill="#e7e2dd" stroke="transparent" points="1419.65,-399.53 1419.65,-459.53 1917.65,-459.53 1917.65,-399.53 1419.65,-399.53"/>
<polygon fill="none" stroke="#29235c" points="1419.65,-399.53 1419.65,-459.53 1917.65,-459.53 1917.65,-399.53 1419.65,-399.53"/>
<text text-anchor="start" x="1430.65" y="-419.73" font-family="Helvetica,sans-Serif" font-size="32.00" fill="#29235c">service_count &#160;&#160;&#160;</text>
<text text-anchor="start" x="1764.43" y="-420.73" font-family="Helvetica,sans-Serif" font-style="italic" font-size="32.00" fill="#29235c">INTEGER</text>
<polygon fill="none" stroke="#29235c" stroke-width="2" points="1418.65,-398.53 1418.65,-880.53 1918.65,-880.53 1918.65,-398.53 1418.65,-398.53"/>
</g>
<!-- Appointment&#45;&gt;Car -->
<!-- Appointment&#45;&gt;Car -->
<g id="edge2" class="edge">
<title>Appointment:e&#45;&gt;Car:w</title>
<path fill="none" stroke="#29235c" stroke-width="3" d="M1167.97,-505.53C1332.87,-505.53 1253.71,-778.01 1408.61,-789.18"/>
<polygon fill="#29235c" stroke="#29235c" stroke-width="3" points="1408.53,-792.68 1418.65,-789.53 1408.78,-785.68 1408.53,-792.68"/>
<text text-anchor="middle" x="1424.87" y="-760.73" font-family="Helvetica,sans-Serif" font-size="32.00" fill="#29235c">*</text>
<text text-anchor="middle" x="1159.07" y="-476.73" font-family="Helvetica,sans-Serif" font-size="32.00" fill="#29235c">1</text>
</g>
<!-- Owner -->
<g id="Owner" class="node">
<title>Owner</title>
<ellipse fill="none" stroke="black" stroke-width="0" cx="2374.98" cy="-699.53" rx="315.24" ry="257.27"/>
<polygon fill="#1d71b8" stroke="transparent" points="2153.98,-819.53 2153.98,-879.53 2595.98,-879.53 2595.98,-819.53 2153.98,-819.53"/>
<polygon fill="none" stroke="#29235c" points="2153.98,-819.53 2153.98,-879.53 2595.98,-879.53 2595.98,-819.53 2153.98,-819.53"/>
<text text-anchor="start" x="2265.62" y="-840.73" font-family="Helvetica,sans-Serif" font-weight="bold" font-size="32.00" fill="#ffffff"> &#160;&#160;&#160;&#160;&#160;&#160;Owner &#160;&#160;&#160;&#160;&#160;&#160;</text>
<polygon fill="#e7e2dd" stroke="transparent" points="2153.98,-759.53 2153.98,-819.53 2595.98,-819.53 2595.98,-759.53 2153.98,-759.53"/>
<polygon fill="none" stroke="#29235c" points="2153.98,-759.53 2153.98,-819.53 2595.98,-819.53 2595.98,-759.53 2153.98,-759.53"/>
<text text-anchor="start" x="2164.98" y="-780.73" font-family="Helvetica,sans-Serif" font-weight="bold" font-size="32.00" fill="#29235c">id</text>
<text text-anchor="start" x="2189.87" y="-780.73" font-family="Helvetica,sans-Serif" font-size="32.00" fill="#29235c"> &#160;&#160;&#160;</text>
<text text-anchor="start" x="2442.77" y="-780.73" font-family="Helvetica,sans-Serif" font-style="italic" font-size="32.00" fill="#29235c">INTEGER</text>
<polygon fill="#e7e2dd" stroke="transparent" points="2153.98,-699.53 2153.98,-759.53 2595.98,-759.53 2595.98,-699.53 2153.98,-699.53"/>
<polygon fill="none" stroke="#29235c" points="2153.98,-699.53 2153.98,-759.53 2595.98,-759.53 2595.98,-699.53 2153.98,-699.53"/>
<text text-anchor="start" x="2164.98" y="-719.73" font-family="Helvetica,sans-Serif" font-size="32.00" fill="#29235c">name &#160;&#160;&#160;</text>
<text text-anchor="start" x="2428.56" y="-720.73" font-family="Helvetica,sans-Serif" font-style="italic" font-size="32.00" fill="#29235c">VARCHAR</text>
<polygon fill="#e7e2dd" stroke="transparent" points="2153.98,-639.53 2153.98,-699.53 2595.98,-699.53 2595.98,-639.53 2153.98,-639.53"/>
<polygon fill="none" stroke="#29235c" points="2153.98,-639.53 2153.98,-699.53 2595.98,-699.53 2595.98,-639.53 2153.98,-639.53"/>
<text text-anchor="start" x="2164.98" y="-659.73" font-family="Helvetica,sans-Serif" font-size="32.00" fill="#29235c">address &#160;&#160;&#160;</text>
<text text-anchor="start" x="2428.56" y="-660.73" font-family="Helvetica,sans-Serif" font-style="italic" font-size="32.00" fill="#29235c">VARCHAR</text>
<polygon fill="#e7e2dd" stroke="transparent" points="2153.98,-579.53 2153.98,-639.53 2595.98,-639.53 2595.98,-579.53 2153.98,-579.53"/>
<polygon fill="none" stroke="#29235c" points="2153.98,-579.53 2153.98,-639.53 2595.98,-639.53 2595.98,-579.53 2153.98,-579.53"/>
<text text-anchor="start" x="2164.5" y="-599.73" font-family="Helvetica,sans-Serif" font-size="32.00" fill="#29235c">contact_number &#160;&#160;&#160;</text>
<text text-anchor="start" x="2428.77" y="-600.73" font-family="Helvetica,sans-Serif" font-style="italic" font-size="32.00" fill="#29235c">VARCHAR</text>
<polygon fill="#e7e2dd" stroke="transparent" points="2153.98,-519.53 2153.98,-579.53 2595.98,-579.53 2595.98,-519.53 2153.98,-519.53"/>
<polygon fill="none" stroke="#29235c" points="2153.98,-519.53 2153.98,-579.53 2595.98,-579.53 2595.98,-519.53 2153.98,-519.53"/>
<text text-anchor="start" x="2164.98" y="-539.73" font-family="Helvetica,sans-Serif" font-size="32.00" fill="#29235c">car_count &#160;&#160;&#160;</text>
<text text-anchor="start" x="2442.77" y="-540.73" font-family="Helvetica,sans-Serif" font-style="italic" font-size="32.00" fill="#29235c">INTEGER</text>
<polygon fill="none" stroke="#29235c" stroke-width="2" points="2152.98,-518.53 2152.98,-880.53 2596.98,-880.53 2596.98,-518.53 2152.98,-518.53"/>
</g>
<!-- Car&#45;&gt;Owner -->
<!-- Car&#45;&gt;Owner -->
<g id="edge4" class="edge">
<title>Car:e&#45;&gt;Owner:w</title>
<path fill="none" stroke="#29235c" stroke-width="3" d="M1918.65,-489.53C2084.37,-489.53 1987.95,-777.36 2142.92,-789.16"/>
<polygon fill="#29235c" stroke="#29235c" stroke-width="3" points="2142.86,-792.66 2152.98,-789.53 2143.12,-785.67 2142.86,-792.66"/>
<text text-anchor="middle" x="2146.76" y="-760.73" font-family="Helvetica,sans-Serif" font-size="32.00" fill="#29235c">*</text>
<text text-anchor="middle" x="1909.75" y="-460.73" font-family="Helvetica,sans-Serif" font-size="32.00" fill="#29235c">1</text>
</g>
<!-- Employee -->
<g id="Employee" class="node">
<title>Employee</title>
<ellipse fill="none" stroke="black" stroke-width="0" cx="311.13" cy="-1618.53" rx="243.9" ry="214.92"/>
<polygon fill="#1d71b8" stroke="transparent" points="141.13,-1708.53 141.13,-1768.53 482.13,-1768.53 482.13,-1708.53 141.13,-1708.53"/>
<polygon fill="none" stroke="#29235c" points="141.13,-1708.53 141.13,-1768.53 482.13,-1768.53 482.13,-1708.53 141.13,-1708.53"/>
<text text-anchor="start" x="178.25" y="-1729.73" font-family="Helvetica,sans-Serif" font-weight="bold" font-size="32.00" fill="#ffffff"> &#160;&#160;&#160;&#160;&#160;&#160;Employee &#160;&#160;&#160;&#160;&#160;&#160;</text>
<polygon fill="#e7e2dd" stroke="transparent" points="141.13,-1648.53 141.13,-1708.53 482.13,-1708.53 482.13,-1648.53 141.13,-1648.53"/>
<polygon fill="none" stroke="#29235c" points="141.13,-1648.53 141.13,-1708.53 482.13,-1708.53 482.13,-1648.53 141.13,-1648.53"/>
<text text-anchor="start" x="152.13" y="-1669.73" font-family="Helvetica,sans-Serif" font-weight="bold" font-size="32.00" fill="#29235c">id</text>
<text text-anchor="start" x="177.02" y="-1669.73" font-family="Helvetica,sans-Serif" font-size="32.00" fill="#29235c"> &#160;&#160;&#160;</text>
<text text-anchor="start" x="328.91" y="-1669.73" font-family="Helvetica,sans-Serif" font-style="italic" font-size="32.00" fill="#29235c">INTEGER</text>
<polygon fill="#e7e2dd" stroke="transparent" points="141.13,-1588.53 141.13,-1648.53 482.13,-1648.53 482.13,-1588.53 141.13,-1588.53"/>
<polygon fill="none" stroke="#29235c" points="141.13,-1588.53 141.13,-1648.53 482.13,-1648.53 482.13,-1588.53 141.13,-1588.53"/>
<text text-anchor="start" x="152.13" y="-1608.73" font-family="Helvetica,sans-Serif" font-size="32.00" fill="#29235c">name &#160;&#160;&#160;</text>
<text text-anchor="start" x="314.7" y="-1609.73" font-family="Helvetica,sans-Serif" font-style="italic" font-size="32.00" fill="#29235c">VARCHAR</text>
<polygon fill="#e7e2dd" stroke="transparent" points="141.13,-1528.53 141.13,-1588.53 482.13,-1588.53 482.13,-1528.53 141.13,-1528.53"/>
<polygon fill="none" stroke="#29235c" points="141.13,-1528.53 141.13,-1588.53 482.13,-1588.53 482.13,-1528.53 141.13,-1528.53"/>
<text text-anchor="start" x="152.13" y="-1548.73" font-family="Helvetica,sans-Serif" font-size="32.00" fill="#29235c">role &#160;&#160;&#160;</text>
<text text-anchor="start" x="314.7" y="-1549.73" font-family="Helvetica,sans-Serif" font-style="italic" font-size="32.00" fill="#29235c">VARCHAR</text>
<polygon fill="#e7e2dd" stroke="transparent" points="141.13,-1468.53 141.13,-1528.53 482.13,-1528.53 482.13,-1468.53 141.13,-1468.53"/>
<polygon fill="none" stroke="#29235c" points="141.13,-1468.53 141.13,-1528.53 482.13,-1528.53 482.13,-1468.53 141.13,-1468.53"/>
<text text-anchor="start" x="151.7" y="-1488.73" font-family="Helvetica,sans-Serif" font-size="32.00" fill="#29235c">garage_id &#160;&#160;&#160;</text>
<text text-anchor="start" x="329.02" y="-1489.73" font-family="Helvetica,sans-Serif" font-style="italic" font-size="32.00" fill="#29235c">INTEGER</text>
<polygon fill="none" stroke="#29235c" stroke-width="2" points="139.63,-1467.53 139.63,-1769.53 482.63,-1769.53 482.63,-1467.53 139.63,-1467.53"/>
</g>
<!-- Garage -->
<g id="Garage" class="node">
<title>Garage</title>
<ellipse fill="none" stroke="black" stroke-width="0" cx="967.97" cy="-1558.53" rx="309.93" ry="299.63"/>
<polygon fill="#1d71b8" stroke="transparent" points="750.97,-1708.53 750.97,-1768.53 1184.97,-1768.53 1184.97,-1708.53 750.97,-1708.53"/>
<polygon fill="none" stroke="#29235c" points="750.97,-1708.53 750.97,-1768.53 1184.97,-1768.53 1184.97,-1708.53 750.97,-1708.53"/>
<text text-anchor="start" x="852.37" y="-1729.73" font-family="Helvetica,sans-Serif" font-weight="bold" font-size="32.00" fill="#ffffff"> &#160;&#160;&#160;&#160;&#160;&#160;Garage &#160;&#160;&#160;&#160;&#160;&#160;</text>
<polygon fill="#e7e2dd" stroke="transparent" points="750.97,-1648.53 750.97,-1708.53 1184.97,-1708.53 1184.97,-1648.53 750.97,-1648.53"/>
<polygon fill="none" stroke="#29235c" points="750.97,-1648.53 750.97,-1708.53 1184.97,-1708.53 1184.97,-1648.53 750.97,-1648.53"/>
<text text-anchor="start" x="761.97" y="-1669.73" font-family="Helvetica,sans-Serif" font-weight="bold" font-size="32.00" fill="#29235c">id</text>
<text text-anchor="start" x="786.86" y="-1669.73" font-family="Helvetica,sans-Serif" font-size="32.00" fill="#29235c"> &#160;&#160;&#160;</text>
<text text-anchor="start" x="1031.75" y="-1669.73" font-family="Helvetica,sans-Serif" font-style="italic" font-size="32.00" fill="#29235c">INTEGER</text>
<polygon fill="#e7e2dd" stroke="transparent" points="750.97,-1588.53 750.97,-1648.53 1184.97,-1648.53 1184.97,-1588.53 750.97,-1588.53"/>
<polygon fill="none" stroke="#29235c" points="750.97,-1588.53 750.97,-1648.53 1184.97,-1648.53 1184.97,-1588.53 750.97,-1588.53"/>
<text text-anchor="start" x="761.97" y="-1608.73" font-family="Helvetica,sans-Serif" font-size="32.00" fill="#29235c">name &#160;&#160;&#160;</text>
<text text-anchor="start" x="1017.54" y="-1609.73" font-family="Helvetica,sans-Serif" font-style="italic" font-size="32.00" fill="#29235c">VARCHAR</text>
<polygon fill="#e7e2dd" stroke="transparent" points="750.97,-1528.53 750.97,-1588.53 1184.97,-1588.53 1184.97,-1528.53 750.97,-1528.53"/>
<polygon fill="none" stroke="#29235c" points="750.97,-1528.53 750.97,-1588.53 1184.97,-1588.53 1184.97,-1528.53 750.97,-1528.53"/>
<text text-anchor="start" x="761.97" y="-1548.73" font-family="Helvetica,sans-Serif" font-size="32.00" fill="#29235c">location &#160;&#160;&#160;</text>
<text text-anchor="start" x="1017.54" y="-1549.73" font-family="Helvetica,sans-Serif" font-style="italic" font-size="32.00" fill="#29235c">VARCHAR</text>
<polygon fill="#e7e2dd" stroke="transparent" points="750.97,-1468.53 750.97,-1528.53 1184.97,-1528.53 1184.97,-1468.53 750.97,-1468.53"/>
<polygon fill="none" stroke="#29235c" points="750.97,-1468.53 750.97,-1528.53 1184.97,-1528.53 1184.97,-1468.53 750.97,-1468.53"/>
<text text-anchor="start" x="761.97" y="-1488.73" font-family="Helvetica,sans-Serif" font-size="32.00" fill="#29235c">capacity &#160;&#160;&#160;</text>
<text text-anchor="start" x="1031.75" y="-1489.73" font-family="Helvetica,sans-Serif" font-style="italic" font-size="32.00" fill="#29235c">INTEGER</text>
<polygon fill="#e7e2dd" stroke="transparent" points="750.97,-1408.53 750.97,-1468.53 1184.97,-1468.53 1184.97,-1408.53 750.97,-1408.53"/>
<polygon fill="none" stroke="#29235c" points="750.97,-1408.53 750.97,-1468.53 1184.97,-1468.53 1184.97,-1408.53 750.97,-1408.53"/>
<text text-anchor="start" x="761.97" y="-1428.73" font-family="Helvetica,sans-Serif" font-size="32.00" fill="#29235c">car_count &#160;&#160;&#160;</text>
<text text-anchor="start" x="1031.75" y="-1429.73" font-family="Helvetica,sans-Serif" font-style="italic" font-size="32.00" fill="#29235c">INTEGER</text>
<polygon fill="#e7e2dd" stroke="transparent" points="750.97,-1348.53 750.97,-1408.53 1184.97,-1408.53 1184.97,-1348.53 750.97,-1348.53"/>
<polygon fill="none" stroke="#29235c" points="750.97,-1348.53 750.97,-1408.53 1184.97,-1408.53 1184.97,-1348.53 750.97,-1348.53"/>
<text text-anchor="start" x="761.81" y="-1368.73" font-family="Helvetica,sans-Serif" font-size="32.00" fill="#29235c">employee_count &#160;&#160;&#160;</text>
<text text-anchor="start" x="1031.86" y="-1369.73" font-family="Helvetica,sans-Serif" font-style="italic" font-size="32.00" fill="#29235c">INTEGER</text>
<polygon fill="none" stroke="#29235c" stroke-width="2" points="749.97,-1347.53 749.97,-1769.53 1185.97,-1769.53 1185.97,-1347.53 749.97,-1347.53"/>
</g>
<!-- Employee&#45;&gt;Garage -->
<!-- Employee&#45;&gt;Garage -->
<g id="edge6" class="edge">
<title>Employee:e&#45;&gt;Garage:w</title>
<path fill="none" stroke="#29235c" stroke-width="3" d="M483.13,-1498.53C622.69,-1498.53 607.76,-1669.85 739.77,-1678.22"/>
<polygon fill="#29235c" stroke="#29235c" stroke-width="3" points="739.86,-1681.72 749.97,-1678.53 740.08,-1674.73 739.86,-1681.72"/>
<text text-anchor="middle" x="743.74" y="-1688.13" font-family="Helvetica,sans-Serif" font-size="32.00" fill="#29235c">*</text>
<text text-anchor="middle" x="474.23" y="-1469.73" font-family="Helvetica,sans-Serif" font-size="32.00" fill="#29235c">1</text>
</g>
<!-- Invoice -->
<g id="Invoice" class="node">
<title>Invoice</title>
<ellipse fill="none" stroke="black" stroke-width="0" cx="311.13" cy="-1013.53" rx="282.27" ry="214.92"/>
<polygon fill="#1d71b8" stroke="transparent" points="114.13,-1103.53 114.13,-1163.53 509.13,-1163.53 509.13,-1103.53 114.13,-1103.53"/>
<polygon fill="none" stroke="#29235c" points="114.13,-1103.53 114.13,-1163.53 509.13,-1163.53 509.13,-1103.53 114.13,-1103.53"/>
<text text-anchor="start" x="198.7" y="-1124.73" font-family="Helvetica,sans-Serif" font-weight="bold" font-size="32.00" fill="#ffffff"> &#160;&#160;&#160;&#160;&#160;&#160;Invoice &#160;&#160;&#160;&#160;&#160;&#160;</text>
<polygon fill="#e7e2dd" stroke="transparent" points="114.13,-1043.53 114.13,-1103.53 509.13,-1103.53 509.13,-1043.53 114.13,-1043.53"/>
<polygon fill="none" stroke="#29235c" points="114.13,-1043.53 114.13,-1103.53 509.13,-1103.53 509.13,-1043.53 114.13,-1043.53"/>
<text text-anchor="start" x="125.13" y="-1064.73" font-family="Helvetica,sans-Serif" font-weight="bold" font-size="32.00" fill="#29235c">id</text>
<text text-anchor="start" x="150.02" y="-1064.73" font-family="Helvetica,sans-Serif" font-size="32.00" fill="#29235c"> &#160;&#160;&#160;</text>
<text text-anchor="start" x="355.91" y="-1064.73" font-family="Helvetica,sans-Serif" font-style="italic" font-size="32.00" fill="#29235c">INTEGER</text>
<polygon fill="#e7e2dd" stroke="transparent" points="114.13,-983.53 114.13,-1043.53 509.13,-1043.53 509.13,-983.53 114.13,-983.53"/>
<polygon fill="none" stroke="#29235c" points="114.13,-983.53 114.13,-1043.53 509.13,-1043.53 509.13,-983.53 114.13,-983.53"/>
<text text-anchor="start" x="125.13" y="-1003.73" font-family="Helvetica,sans-Serif" font-size="32.00" fill="#29235c">service_id &#160;&#160;&#160;</text>
<text text-anchor="start" x="355.91" y="-1004.73" font-family="Helvetica,sans-Serif" font-style="italic" font-size="32.00" fill="#29235c">INTEGER</text>
<polygon fill="#e7e2dd" stroke="transparent" points="114.13,-923.53 114.13,-983.53 509.13,-983.53 509.13,-923.53 114.13,-923.53"/>
<polygon fill="none" stroke="#29235c" points="114.13,-923.53 114.13,-983.53 509.13,-983.53 509.13,-923.53 114.13,-923.53"/>
<text text-anchor="start" x="125.13" y="-943.73" font-family="Helvetica,sans-Serif" font-size="32.00" fill="#29235c">total_amount &#160;&#160;&#160;</text>
<text text-anchor="start" x="355.91" y="-944.73" font-family="Helvetica,sans-Serif" font-style="italic" font-size="32.00" fill="#29235c">INTEGER</text>
<polygon fill="#e7e2dd" stroke="transparent" points="114.13,-863.53 114.13,-923.53 509.13,-923.53 509.13,-863.53 114.13,-863.53"/>
<polygon fill="none" stroke="#29235c" points="114.13,-863.53 114.13,-923.53 509.13,-923.53 509.13,-863.53 114.13,-863.53"/>
<text text-anchor="start" x="125.03" y="-883.73" font-family="Helvetica,sans-Serif" font-size="32.00" fill="#29235c">invoice_count &#160;&#160;&#160;</text>
<text text-anchor="start" x="356.02" y="-884.73" font-family="Helvetica,sans-Serif" font-style="italic" font-size="32.00" fill="#29235c">INTEGER</text>
<polygon fill="none" stroke="#29235c" stroke-width="2" points="112.63,-862.53 112.63,-1164.53 509.63,-1164.53 509.63,-862.53 112.63,-862.53"/>
</g>
<!-- Service -->
<g id="Service" class="node">
<title>Service</title>
<ellipse fill="none" stroke="black" stroke-width="0" cx="967.97" cy="-983.53" rx="269.32" ry="257.27"/>
<polygon fill="#1d71b8" stroke="transparent" points="779.97,-1103.53 779.97,-1163.53 1156.97,-1163.53 1156.97,-1103.53 779.97,-1103.53"/>
<polygon fill="none" stroke="#29235c" points="779.97,-1103.53 779.97,-1163.53 1156.97,-1163.53 1156.97,-1103.53 779.97,-1103.53"/>
<text text-anchor="start" x="852.88" y="-1124.73" font-family="Helvetica,sans-Serif" font-weight="bold" font-size="32.00" fill="#ffffff"> &#160;&#160;&#160;&#160;&#160;&#160;Service &#160;&#160;&#160;&#160;&#160;&#160;</text>
<polygon fill="#e7e2dd" stroke="transparent" points="779.97,-1043.53 779.97,-1103.53 1156.97,-1103.53 1156.97,-1043.53 779.97,-1043.53"/>
<polygon fill="none" stroke="#29235c" points="779.97,-1043.53 779.97,-1103.53 1156.97,-1103.53 1156.97,-1043.53 779.97,-1043.53"/>
<text text-anchor="start" x="790.97" y="-1064.73" font-family="Helvetica,sans-Serif" font-weight="bold" font-size="32.00" fill="#29235c">id</text>
<text text-anchor="start" x="815.86" y="-1064.73" font-family="Helvetica,sans-Serif" font-size="32.00" fill="#29235c"> &#160;&#160;&#160;</text>
<text text-anchor="start" x="1003.75" y="-1064.73" font-family="Helvetica,sans-Serif" font-style="italic" font-size="32.00" fill="#29235c">INTEGER</text>
<polygon fill="#e7e2dd" stroke="transparent" points="779.97,-983.53 779.97,-1043.53 1156.97,-1043.53 1156.97,-983.53 779.97,-983.53"/>
<polygon fill="none" stroke="#29235c" points="779.97,-983.53 779.97,-1043.53 1156.97,-1043.53 1156.97,-983.53 779.97,-983.53"/>
<text text-anchor="start" x="790.97" y="-1003.73" font-family="Helvetica,sans-Serif" font-size="32.00" fill="#29235c">car_id &#160;&#160;&#160;</text>
<text text-anchor="start" x="1003.75" y="-1004.73" font-family="Helvetica,sans-Serif" font-style="italic" font-size="32.00" fill="#29235c">INTEGER</text>
<polygon fill="#e7e2dd" stroke="transparent" points="779.97,-923.53 779.97,-983.53 1156.97,-983.53 1156.97,-923.53 779.97,-923.53"/>
<polygon fill="none" stroke="#29235c" points="779.97,-923.53 779.97,-983.53 1156.97,-983.53 1156.97,-923.53 779.97,-923.53"/>
<text text-anchor="start" x="790.97" y="-943.73" font-family="Helvetica,sans-Serif" font-size="32.00" fill="#29235c">service_date &#160;&#160;&#160;</text>
<text text-anchor="start" x="1060.64" y="-944.73" font-family="Helvetica,sans-Serif" font-style="italic" font-size="32.00" fill="#29235c">DATE</text>
<polygon fill="#e7e2dd" stroke="transparent" points="779.97,-863.53 779.97,-923.53 1156.97,-923.53 1156.97,-863.53 779.97,-863.53"/>
<polygon fill="none" stroke="#29235c" points="779.97,-863.53 779.97,-923.53 1156.97,-923.53 1156.97,-863.53 779.97,-863.53"/>
<text text-anchor="start" x="790.97" y="-883.73" font-family="Helvetica,sans-Serif" font-size="32.00" fill="#29235c">description &#160;&#160;&#160;</text>
<text text-anchor="start" x="989.54" y="-884.73" font-family="Helvetica,sans-Serif" font-style="italic" font-size="32.00" fill="#29235c">VARCHAR</text>
<polygon fill="#e7e2dd" stroke="transparent" points="779.97,-803.53 779.97,-863.53 1156.97,-863.53 1156.97,-803.53 779.97,-803.53"/>
<polygon fill="none" stroke="#29235c" points="779.97,-803.53 779.97,-863.53 1156.97,-863.53 1156.97,-803.53 779.97,-803.53"/>
<text text-anchor="start" x="790.77" y="-823.73" font-family="Helvetica,sans-Serif" font-size="32.00" fill="#29235c">repair_count &#160;&#160;&#160;</text>
<text text-anchor="start" x="1003.86" y="-824.73" font-family="Helvetica,sans-Serif" font-style="italic" font-size="32.00" fill="#29235c">INTEGER</text>
<polygon fill="none" stroke="#29235c" stroke-width="2" points="778.47,-802.53 778.47,-1164.53 1157.47,-1164.53 1157.47,-802.53 778.47,-802.53"/>
</g>
<!-- Invoice&#45;&gt;Service -->
<!-- Invoice&#45;&gt;Service -->
<g id="edge8" class="edge">
<title>Invoice:e&#45;&gt;Service:w</title>
<path fill="none" stroke="#29235c" stroke-width="3" d="M510.13,-1013.53C629.08,-1013.53 655.1,-1070.18 768.8,-1073.39"/>
<polygon fill="#29235c" stroke="#29235c" stroke-width="3" points="768.92,-1076.89 778.97,-1073.53 769.02,-1069.9 768.92,-1076.89"/>
<text text-anchor="middle" x="772.74" y="-1044.73" font-family="Helvetica,sans-Serif" font-size="32.00" fill="#29235c">*</text>
<text text-anchor="middle" x="501.23" y="-984.73" font-family="Helvetica,sans-Serif" font-size="32.00" fill="#29235c">1</text>
</g>
<!-- Service&#45;&gt;Car -->
<!-- Service&#45;&gt;Car -->
<g id="edge10" class="edge">
<title>Service:e&#45;&gt;Car:w</title>
<path fill="none" stroke="#29235c" stroke-width="3" d="M1157.97,-1013.53C1307.29,-1013.53 1267.81,-799.48 1408.65,-789.87"/>
<polygon fill="#29235c" stroke="#29235c" stroke-width="3" points="1408.77,-793.37 1418.65,-789.53 1408.54,-786.37 1408.77,-793.37"/>
<text text-anchor="middle" x="1424.87" y="-799.13" font-family="Helvetica,sans-Serif" font-size="32.00" fill="#29235c">*</text>
<text text-anchor="middle" x="1149.07" y="-984.73" font-family="Helvetica,sans-Serif" font-size="32.00" fill="#29235c">1</text>
</g>
<!-- Part -->
<g id="Part" class="node">
<title>Part</title>
<ellipse fill="none" stroke="black" stroke-width="0" cx="967.97" cy="-172.53" rx="210.02" ry="172.57"/>
<polygon fill="#1d71b8" stroke="transparent" points="821.97,-232.53 821.97,-292.53 1114.97,-292.53 1114.97,-232.53 821.97,-232.53"/>
<polygon fill="none" stroke="#29235c" points="821.97,-232.53 821.97,-292.53 1114.97,-292.53 1114.97,-232.53 821.97,-232.53"/>
<text text-anchor="start" x="876.88" y="-253.73" font-family="Helvetica,sans-Serif" font-weight="bold" font-size="32.00" fill="#ffffff"> &#160;&#160;&#160;&#160;&#160;&#160;Part &#160;&#160;&#160;&#160;&#160;&#160;</text>
<polygon fill="#e7e2dd" stroke="transparent" points="821.97,-172.53 821.97,-232.53 1114.97,-232.53 1114.97,-172.53 821.97,-172.53"/>
<polygon fill="none" stroke="#29235c" points="821.97,-172.53 821.97,-232.53 1114.97,-232.53 1114.97,-172.53 821.97,-172.53"/>
<text text-anchor="start" x="832.97" y="-193.73" font-family="Helvetica,sans-Serif" font-weight="bold" font-size="32.00" fill="#29235c">id</text>
<text text-anchor="start" x="857.86" y="-193.73" font-family="Helvetica,sans-Serif" font-size="32.00" fill="#29235c"> &#160;&#160;&#160;</text>
<text text-anchor="start" x="961.75" y="-193.73" font-family="Helvetica,sans-Serif" font-style="italic" font-size="32.00" fill="#29235c">INTEGER</text>
<polygon fill="#e7e2dd" stroke="transparent" points="821.97,-112.53 821.97,-172.53 1114.97,-172.53 1114.97,-112.53 821.97,-112.53"/>
<polygon fill="none" stroke="#29235c" points="821.97,-112.53 821.97,-172.53 1114.97,-172.53 1114.97,-112.53 821.97,-112.53"/>
<text text-anchor="start" x="832.67" y="-132.73" font-family="Helvetica,sans-Serif" font-size="32.00" fill="#29235c">name &#160;&#160;&#160;</text>
<text text-anchor="start" x="947.75" y="-133.73" font-family="Helvetica,sans-Serif" font-style="italic" font-size="32.00" fill="#29235c">VARCHAR</text>
<polygon fill="#e7e2dd" stroke="transparent" points="821.97,-52.53 821.97,-112.53 1114.97,-112.53 1114.97,-52.53 821.97,-52.53"/>
<polygon fill="none" stroke="#29235c" points="821.97,-52.53 821.97,-112.53 1114.97,-112.53 1114.97,-52.53 821.97,-52.53"/>
<text text-anchor="start" x="832.97" y="-72.73" font-family="Helvetica,sans-Serif" font-size="32.00" fill="#29235c">price &#160;&#160;&#160;</text>
<text text-anchor="start" x="961.75" y="-73.73" font-family="Helvetica,sans-Serif" font-style="italic" font-size="32.00" fill="#29235c">INTEGER</text>
<polygon fill="none" stroke="#29235c" stroke-width="2" points="820.47,-51.53 820.47,-293.53 1115.47,-293.53 1115.47,-51.53 820.47,-51.53"/>
</g>
<!-- Repair -->
<g id="Repair" class="node">
<title>Repair</title>
<ellipse fill="none" stroke="black" stroke-width="0" cx="311.13" cy="-378.53" rx="311.25" ry="257.27"/>
<polygon fill="#1d71b8" stroke="transparent" points="93.13,-498.53 93.13,-558.53 529.13,-558.53 529.13,-498.53 93.13,-498.53"/>
<polygon fill="none" stroke="#29235c" points="93.13,-498.53 93.13,-558.53 529.13,-558.53 529.13,-498.53 93.13,-498.53"/>
<text text-anchor="start" x="201.77" y="-519.73" font-family="Helvetica,sans-Serif" font-weight="bold" font-size="32.00" fill="#ffffff"> &#160;&#160;&#160;&#160;&#160;&#160;Repair &#160;&#160;&#160;&#160;&#160;&#160;</text>
<polygon fill="#e7e2dd" stroke="transparent" points="93.13,-438.53 93.13,-498.53 529.13,-498.53 529.13,-438.53 93.13,-438.53"/>
<polygon fill="none" stroke="#29235c" points="93.13,-438.53 93.13,-498.53 529.13,-498.53 529.13,-438.53 93.13,-438.53"/>
<text text-anchor="start" x="104.13" y="-459.73" font-family="Helvetica,sans-Serif" font-weight="bold" font-size="32.00" fill="#29235c">id</text>
<text text-anchor="start" x="129.02" y="-459.73" font-family="Helvetica,sans-Serif" font-size="32.00" fill="#29235c"> &#160;&#160;&#160;</text>
<text text-anchor="start" x="375.91" y="-459.73" font-family="Helvetica,sans-Serif" font-style="italic" font-size="32.00" fill="#29235c">INTEGER</text>
<polygon fill="#e7e2dd" stroke="transparent" points="93.13,-378.53 93.13,-438.53 529.13,-438.53 529.13,-378.53 93.13,-378.53"/>
<polygon fill="none" stroke="#29235c" points="93.13,-378.53 93.13,-438.53 529.13,-438.53 529.13,-378.53 93.13,-378.53"/>
<text text-anchor="start" x="104.13" y="-398.73" font-family="Helvetica,sans-Serif" font-size="32.00" fill="#29235c">service_id &#160;&#160;&#160;</text>
<text text-anchor="start" x="375.91" y="-399.73" font-family="Helvetica,sans-Serif" font-style="italic" font-size="32.00" fill="#29235c">INTEGER</text>
<polygon fill="#e7e2dd" stroke="transparent" points="93.13,-318.53 93.13,-378.53 529.13,-378.53 529.13,-318.53 93.13,-318.53"/>
<polygon fill="none" stroke="#29235c" points="93.13,-318.53 93.13,-378.53 529.13,-378.53 529.13,-318.53 93.13,-318.53"/>
<text text-anchor="start" x="104.13" y="-338.73" font-family="Helvetica,sans-Serif" font-size="32.00" fill="#29235c">part_id &#160;&#160;&#160;</text>
<text text-anchor="start" x="375.91" y="-339.73" font-family="Helvetica,sans-Serif" font-style="italic" font-size="32.00" fill="#29235c">INTEGER</text>
<polygon fill="#e7e2dd" stroke="transparent" points="93.13,-258.53 93.13,-318.53 529.13,-318.53 529.13,-258.53 93.13,-258.53"/>
<polygon fill="none" stroke="#29235c" points="93.13,-258.53 93.13,-318.53 529.13,-318.53 529.13,-258.53 93.13,-258.53"/>
<text text-anchor="start" x="104.13" y="-278.73" font-family="Helvetica,sans-Serif" font-size="32.00" fill="#29235c">repair_date &#160;&#160;&#160;</text>
<text text-anchor="start" x="432.8" y="-279.73" font-family="Helvetica,sans-Serif" font-style="italic" font-size="32.00" fill="#29235c">DATE</text>
<polygon fill="#e7e2dd" stroke="transparent" points="93.13,-198.53 93.13,-258.53 529.13,-258.53 529.13,-198.53 93.13,-198.53"/>
<polygon fill="none" stroke="#29235c" points="93.13,-198.53 93.13,-258.53 529.13,-258.53 529.13,-198.53 93.13,-198.53"/>
<text text-anchor="start" x="104.09" y="-218.73" font-family="Helvetica,sans-Serif" font-size="32.00" fill="#29235c">repair_cost_total &#160;&#160;&#160;</text>
<text text-anchor="start" x="376.02" y="-219.73" font-family="Helvetica,sans-Serif" font-style="italic" font-size="32.00" fill="#29235c">INTEGER</text>
<polygon fill="none" stroke="#29235c" stroke-width="2" points="92.13,-197.53 92.13,-559.53 530.13,-559.53 530.13,-197.53 92.13,-197.53"/>
</g>
<!-- Repair&#45;&gt;Service -->
<!-- Repair&#45;&gt;Service -->
<g id="edge14" class="edge">
<title>Repair:e&#45;&gt;Service:w</title>
<path fill="none" stroke="#29235c" stroke-width="3" d="M530.13,-408.53C684.37,-408.53 624.07,-1044 768.67,-1072.54"/>
<polygon fill="#29235c" stroke="#29235c" stroke-width="3" points="768.68,-1076.06 778.97,-1073.53 769.35,-1069.09 768.68,-1076.06"/>
<text text-anchor="middle" x="772.74" y="-1083.13" font-family="Helvetica,sans-Serif" font-size="32.00" fill="#29235c">*</text>
<text text-anchor="middle" x="521.23" y="-379.73" font-family="Helvetica,sans-Serif" font-size="32.00" fill="#29235c">1</text>
</g>
<!-- Repair&#45;&gt;Part -->
<!-- Repair&#45;&gt;Part -->
<g id="edge12" class="edge">
<title>Repair:e&#45;&gt;Part:w</title>
<path fill="none" stroke="#29235c" stroke-width="3" d="M530.13,-348.53C671.23,-348.53 676.17,-209.58 810.63,-202.79"/>
<polygon fill="#29235c" stroke="#29235c" stroke-width="3" points="811.06,-206.28 820.97,-202.53 810.88,-199.28 811.06,-206.28"/>
<text text-anchor="middle" x="814.74" y="-173.73" font-family="Helvetica,sans-Serif" font-size="32.00" fill="#29235c">*</text>
<text text-anchor="middle" x="521.23" y="-319.73" font-family="Helvetica,sans-Serif" font-size="32.00" fill="#29235c">1</text>
</g>
<!-- Vendor -->
<g id="Vendor" class="node">
<title>Vendor</title>
<ellipse fill="none" stroke="black" stroke-width="0" cx="311.13" cy="-2023.53" rx="275.54" ry="172.57"/>
<polygon fill="#1d71b8" stroke="transparent" points="118.13,-2083.53 118.13,-2143.53 504.13,-2143.53 504.13,-2083.53 118.13,-2083.53"/>
<polygon fill="none" stroke="#29235c" points="118.13,-2083.53 118.13,-2143.53 504.13,-2143.53 504.13,-2083.53 118.13,-2083.53"/>
<text text-anchor="start" x="197.3" y="-2104.73" font-family="Helvetica,sans-Serif" font-weight="bold" font-size="32.00" fill="#ffffff"> &#160;&#160;&#160;&#160;&#160;&#160;Vendor &#160;&#160;&#160;&#160;&#160;&#160;</text>
<polygon fill="#e7e2dd" stroke="transparent" points="118.13,-2023.53 118.13,-2083.53 504.13,-2083.53 504.13,-2023.53 118.13,-2023.53"/>
<polygon fill="none" stroke="#29235c" points="118.13,-2023.53 118.13,-2083.53 504.13,-2083.53 504.13,-2023.53 118.13,-2023.53"/>
<text text-anchor="start" x="129.13" y="-2044.73" font-family="Helvetica,sans-Serif" font-weight="bold" font-size="32.00" fill="#29235c">id</text>
<text text-anchor="start" x="154.02" y="-2044.73" font-family="Helvetica,sans-Serif" font-size="32.00" fill="#29235c"> &#160;&#160;&#160;</text>
<text text-anchor="start" x="350.91" y="-2044.73" font-family="Helvetica,sans-Serif" font-style="italic" font-size="32.00" fill="#29235c">INTEGER</text>
<polygon fill="#e7e2dd" stroke="transparent" points="118.13,-1963.53 118.13,-2023.53 504.13,-2023.53 504.13,-1963.53 118.13,-1963.53"/>
<polygon fill="none" stroke="#29235c" points="118.13,-1963.53 118.13,-2023.53 504.13,-2023.53 504.13,-1963.53 118.13,-1963.53"/>
<text text-anchor="start" x="129.13" y="-1983.73" font-family="Helvetica,sans-Serif" font-size="32.00" fill="#29235c">name &#160;&#160;&#160;</text>
<text text-anchor="start" x="336.7" y="-1984.73" font-family="Helvetica,sans-Serif" font-style="italic" font-size="32.00" fill="#29235c">VARCHAR</text>
<polygon fill="#e7e2dd" stroke="transparent" points="118.13,-1903.53 118.13,-1963.53 504.13,-1963.53 504.13,-1903.53 118.13,-1903.53"/>
<polygon fill="none" stroke="#29235c" points="118.13,-1903.53 118.13,-1963.53 504.13,-1963.53 504.13,-1903.53 118.13,-1903.53"/>
<text text-anchor="start" x="129.09" y="-1923.73" font-family="Helvetica,sans-Serif" font-size="32.00" fill="#29235c">contact_info &#160;&#160;&#160;</text>
<text text-anchor="start" x="336.91" y="-1924.73" font-family="Helvetica,sans-Serif" font-style="italic" font-size="32.00" fill="#29235c">VARCHAR</text>
<polygon fill="none" stroke="#29235c" stroke-width="2" points="117.13,-1902.53 117.13,-2144.53 505.13,-2144.53 505.13,-1902.53 117.13,-1902.53"/>
</g>
</g>
</svg>
